# xmcd
#
# Track frame offsets:
# 150
# 18258
# 32245
# 49098
# 73415
# 91018
# 108205
# 131905
# 147625
#
# Disc length: 2311 seconds
#
#
# Revision: 0
# Processed by: cddbd v1.5PL3 Copyright (c) Steve Scherf et al.
# Submitted via: FreeRIP 2.60 
#
DISCID=80090509
DTITLE=Code Blue - Stages
DYEAR=1900
DGENRE=Blues
TTITLE0=(You're So) Busy
TTITLE1=Who's Making Love
TTITLE2=Respect Yourself
TTITLE3=Not Enough Joy
TTITLE4=The Same Rope
TTITLE5=I'd Rather Be (Blind, Cripple and Crazy)
TTITLE6=Back In Baby's Arms
TTITLE7=I Wish It Would Rain
TTITLE8=Joy Jam (Instrumental)
EXTD=
EXTT0=
EXTT1=
EXTT2=
EXTT3=
EXTT4=
EXTT5=
EXTT6=
EXTT7=
EXTT8=
PLAYORDER=
